<svg width="31" height="27" viewBox="0 0 31 27" fill="none" xmlns="http://www.w3.org/2000/svg">
<path id="Vector" d="M18.4204 0.721649L30.3125 13.4345L18.4204 26.1473C18.313 26.2973 18.1766 26.421 18.0203 26.51C17.8641 26.5991 17.6916 26.6513 17.5147 26.6633C17.3378 26.6753 17.1605 26.6468 16.9949 26.5796C16.8292 26.5124 16.6791 26.4081 16.5547 26.2739C16.4302 26.1396 16.3343 25.9785 16.2735 25.8014C16.2127 25.6243 16.1884 25.4354 16.2022 25.2474C16.216 25.0595 16.2676 24.8769 16.3536 24.712C16.4395 24.5471 16.5578 24.4038 16.7003 24.2917L25.5977 14.7505L1.92497 14.7505C1.59677 14.7505 1.28202 14.6118 1.04995 14.365C0.817879 14.1182 0.687502 13.7835 0.687502 13.4345C0.687502 13.0854 0.817879 12.7507 1.04995 12.5039C1.28202 12.2571 1.59677 12.1184 1.92497 12.1184L25.5977 12.1184L16.7003 2.57725C16.469 2.32943 16.3396 1.99402 16.3408 1.64479C16.342 1.29557 16.4735 0.961136 16.7065 0.715067C16.9396 0.469 17.2549 0.331453 17.5833 0.332688C17.9117 0.333922 18.2262 0.473837 18.4576 0.721649L18.4204 0.721649Z" fill="#FEFEFE"/>
</svg>
