<svg width="31" height="27" viewBox="0 0 31 27" fill="none" xmlns="http://www.w3.org/2000/svg">
<path id="Vector" d="M12.5796 0.721649L0.6875 13.4345L12.5796 26.1473C12.687 26.2973 12.8234 26.421 12.9797 26.51C13.1359 26.5991 13.3084 26.6513 13.4853 26.6633C13.6622 26.6753 13.8395 26.6468 14.0051 26.5796C14.1708 26.5124 14.3209 26.4081 14.4453 26.2739C14.5698 26.1396 14.6657 25.9785 14.7265 25.8014C14.7873 25.6243 14.8116 25.4354 14.7978 25.2474C14.784 25.0595 14.7324 24.8769 14.6464 24.712C14.5605 24.5471 14.4422 24.4038 14.2997 24.2917L5.40226 14.7505L29.075 14.7505C29.4032 14.7505 29.718 14.6118 29.9501 14.365C30.1821 14.1182 30.3125 13.7835 30.3125 13.4345C30.3125 13.0854 30.1821 12.7507 29.9501 12.5039C29.718 12.2571 29.4032 12.1184 29.075 12.1184L5.40226 12.1184L14.2997 2.57725C14.531 2.32943 14.6604 1.99402 14.6592 1.64479C14.658 1.29557 14.5265 0.961136 14.2935 0.715067C14.0604 0.469 13.7451 0.331453 13.4167 0.332688C13.0883 0.333922 12.7738 0.473837 12.5424 0.721649L12.5796 0.721649Z" fill="var(--pink-color)"/>
</svg>
