<svg width="7" height="13" viewBox="0 0 7 13" fill="none" xmlns="http://www.w3.org/2000/svg">
<path id="Vector" d="M0.138292 11.4802L5.0543 6.16768L0.138291 0.855192C0.0502808 0.760275 0.00100899 0.632857 0.00100898 0.500176C0.00100898 0.367494 0.0502808 0.240076 0.138291 0.14516C0.181038 0.0992011 0.23206 0.0626897 0.288371 0.0377642C0.344681 0.0128387 0.405147 -1.77095e-08 0.466227 -2.03794e-08C0.527306 -2.30493e-08 0.587772 0.0128387 0.644082 0.0377642C0.700392 0.0626897 0.751415 0.0992011 0.794162 0.14516L6.02499 5.79672C6.11683 5.89597 6.16822 6.02908 6.16822 6.16768C6.16822 6.30628 6.11683 6.43939 6.02499 6.53864L0.795172 12.1902C0.752393 12.2365 0.701245 12.2733 0.644748 12.2984C0.588251 12.3235 0.52755 12.3364 0.466227 12.3364C0.404904 12.3364 0.344203 12.3235 0.287706 12.2984C0.231209 12.2733 0.180061 12.2365 0.137282 12.1902C0.0492718 12.0953 5.23132e-07 11.9679 5.17332e-07 11.8352C5.11533e-07 11.7025 0.0492718 11.5751 0.137282 11.4802L0.138292 11.4802Z" fill="#FCE8F8"/>
</svg>
