<svg width="8" height="14" viewBox="0 0 8 14" fill="none" xmlns="http://www.w3.org/2000/svg">
<path d="M0.465896 12.8177L5.94923 6.89215L0.465896 0.96658C0.367729 0.86071 0.312771 0.718587 0.312771 0.570593C0.312771 0.4226 0.367729 0.280477 0.465896 0.174607C0.513576 0.123345 0.570487 0.0826197 0.633295 0.0548177C0.696104 0.0270156 0.763548 0.0126953 0.831677 0.0126953C0.899805 0.0126953 0.967249 0.0270156 1.03006 0.0548177C1.09287 0.0826197 1.14978 0.123345 1.19746 0.174607L7.03195 6.47838C7.13438 6.58908 7.19171 6.73756 7.19171 6.89215C7.19171 7.04674 7.13438 7.19522 7.03195 7.30592L1.19858 13.6097C1.15087 13.6613 1.09382 13.7024 1.0308 13.7304C0.967783 13.7584 0.900077 13.7728 0.831677 13.7728C0.763278 13.7728 0.695571 13.7584 0.632554 13.7304C0.569537 13.7024 0.512486 13.6613 0.464771 13.6097C0.366604 13.5038 0.311646 13.3617 0.311646 13.2137C0.311646 13.0657 0.366604 12.9236 0.464771 12.8177L0.465896 12.8177Z" fill="#FD166F"/>
</svg>
