<svg width="22" height="22" viewBox="0 0 22 22" fill="none" xmlns="http://www.w3.org/2000/svg">
<path id="Vector" d="M14.3 13.2C15.7173 13.2001 17.0799 13.7473 18.1036 14.7275C19.1272 15.7078 19.733 17.0453 19.7945 18.4613L19.8 18.7V19.8C19.8002 20.355 19.5906 20.8896 19.2132 21.2966C18.8358 21.7036 18.3185 21.9529 17.765 21.9945L17.6 22H2.2C1.64497 22.0002 1.11038 21.7906 0.703397 21.4132C0.296418 21.0358 0.0471277 20.5185 0.00550013 19.965L0 19.8V18.7C8.18867e-05 17.2827 0.547296 15.9201 1.52753 14.8964C2.50776 13.8728 3.84533 13.267 5.2613 13.2055L5.5 13.2H14.3ZM20.9 12.1C21.1917 12.1 21.4715 12.2159 21.6778 12.4222C21.8841 12.6285 22 12.9083 22 13.2C22 13.4917 21.8841 13.7715 21.6778 13.9778C21.4715 14.1841 21.1917 14.3 20.9 14.3H19.8C19.5083 14.3 19.2285 14.1841 19.0222 13.9778C18.8159 13.7715 18.7 13.4917 18.7 13.2C18.7 12.9083 18.8159 12.6285 19.0222 12.4222C19.2285 12.2159 19.5083 12.1 19.8 12.1H20.9ZM9.9 0C11.3587 0 12.7576 0.579463 13.7891 1.61091C14.8205 2.64236 15.4 4.04131 15.4 5.5C15.4 6.95869 14.8205 8.35764 13.7891 9.38909C12.7576 10.4205 11.3587 11 9.9 11C8.44131 11 7.04236 10.4205 6.01091 9.38909C4.97946 8.35764 4.4 6.95869 4.4 5.5C4.4 4.04131 4.97946 2.64236 6.01091 1.61091C7.04236 0.579463 8.44131 0 9.9 0ZM20.9 8.8C21.1917 8.8 21.4715 8.91589 21.6778 9.12218C21.8841 9.32847 22 9.60826 22 9.9C22 10.1917 21.8841 10.4715 21.6778 10.6778C21.4715 10.8841 21.1917 11 20.9 11H18.7C18.4083 11 18.1285 10.8841 17.9222 10.6778C17.7159 10.4715 17.6 10.1917 17.6 9.9C17.6 9.60826 17.7159 9.32847 17.9222 9.12218C18.1285 8.91589 18.4083 8.8 18.7 8.8H20.9ZM20.9 5.5C21.1804 5.50031 21.45 5.60767 21.6539 5.80013C21.8578 5.9926 21.9805 6.25565 21.9969 6.53553C22.0133 6.81542 21.9223 7.09102 21.7423 7.30602C21.5624 7.52101 21.3071 7.65919 21.0287 7.6923L20.9 7.7H17.6C17.3196 7.69969 17.05 7.59233 16.8461 7.39987C16.6422 7.2074 16.5195 6.94435 16.5031 6.66447C16.4867 6.38458 16.5777 6.10898 16.7577 5.89398C16.9376 5.67899 17.1929 5.54081 17.4713 5.5077L17.6 5.5H20.9Z" fill="#FD2579"/>
</svg>
