<svg width="89" height="101" viewBox="0 0 89 101" fill="none" xmlns="http://www.w3.org/2000/svg">
<g id="Group 23">
<g id="Group">
<g id="Layer 2">
<path id="Vector" d="M62.2944 50.2644C62.2944 50.2644 63.8331 88.3193 65.0484 97.2638H67.5809C67.5809 97.2638 70.9231 83.2373 70.4166 79.8831C69.9101 76.529 69.7078 75.919 69.7078 75.919L71.2268 70.9382L73.4551 76.8338C73.4551 76.8338 73.1514 82.9325 75.3792 89.6407C77.6071 96.3489 77.6075 97.2638 77.6075 97.2638H80.3424C80.3424 97.2638 82.0642 80.4927 80.3424 75.8172C80.3424 75.8172 82.1962 53.5033 77.8256 50.0234L62.2944 50.2644Z" fill="#58595B"/>
<path id="Vector_2" d="M71.103 22.7246C71.103 22.7246 65.7745 23.1283 63.1765 29.7703C63.1765 29.7703 61.6641 33.1028 61.436 40.8852L58.5328 53.0821L60.3895 53.7257C60.3895 53.7257 64.1034 46.9498 64.2722 46.7463C64.441 46.5428 71.103 22.7246 71.103 22.7246Z" fill="#1B9CC9"/>
<path id="Vector_3" d="M70.9564 21.9476C70.9564 21.9476 68.4918 21.0328 65.4533 26.1825C62.4148 31.3323 62.5501 38.8205 61.4023 40.379C60.2544 41.9375 59.9841 49.4588 62.7864 50.5431C65.5886 51.6274 78.2827 49.9671 78.2827 49.9671C78.2827 49.9671 77.9115 39.0235 78.6538 34.5851C78.6538 34.5851 82.3677 38.3458 82.3677 39.803C82.3677 41.2602 78.7217 50.0348 78.3841 50.2383C78.0464 50.4418 77.9115 50.6108 77.9115 50.6108L79.3292 52.4404C79.3292 52.4404 88.2084 45.0881 88.2084 40.379C88.2084 35.6699 88.681 36.5165 86.9257 33.5349C85.1704 30.5532 79.4119 22.4655 74.4244 21.8848L70.9564 21.9476Z" fill="#27AAE1"/>
<g id="Vector_4" style="mix-blend-mode:multiply">
<path d="M72.5776 23.1867C73.7306 23.1867 74.6653 22.9364 74.6653 22.6275C74.6653 22.3187 73.7306 22.0684 72.5776 22.0684C71.4246 22.0684 70.4899 22.3187 70.4899 22.6275C70.4899 22.9364 71.4246 23.1867 72.5776 23.1867Z" fill="#E6E7E8"/>
</g>
<g id="Vector_5" style="mix-blend-mode:multiply">
<path d="M78.654 34.5851C78.654 34.5851 76.4654 32.9445 76.5328 30.6406C76.5328 30.6406 76.3305 34.6787 77.1407 36.9284C77.9509 39.1781 78.2384 40.1361 78.2384 40.1361L78.654 34.5851Z" fill="#E6E7E8"/>
</g>
<g id="Vector_6" style="mix-blend-mode:multiply">
<path d="M68.2894 59.8594L70.4015 73.644L71.2266 70.9383L68.2894 59.8594Z" fill="#BCBEC0"/>
</g>
<path id="Vector_7" d="M65.4014 97.4668C65.4014 97.4668 63.6457 99.2283 62.3969 99.3642C61.1481 99.5 60.8439 99.8384 61.5867 100.211C62.3295 100.584 68.1363 100.211 68.1363 100.211C68.1363 100.211 68.3725 98.1445 67.4949 97.4668H65.4014Z" fill="#000100"/>
<path id="Vector_8" d="M77.8591 97.4672C77.8591 97.4672 77.1838 100.136 77.8591 100.377C78.5344 100.618 83.8013 100.377 83.8013 100.377C83.8013 100.377 83.6999 99.4323 82.7208 99.1294C81.7418 98.8265 79.9186 98.011 79.8512 97.6386C79.7837 97.2661 79.986 97.2656 79.986 97.2656H77.9605L77.8591 97.4672Z" fill="#000100"/>
<path id="Vector_9" d="M68.1093 14.0413C68.0883 13.7706 67.8434 13.5311 67.7061 13.3074C67.5875 13.1154 67.5488 12.9676 67.4938 12.7554C67.3675 12.2678 67.1437 11.9011 67.3733 11.4C67.8611 10.3334 68.9726 10.0431 69.9081 9.51172C69.9206 9.75795 69.7599 10.0042 69.7771 10.2658C70.2836 10.3234 70.8221 10.0186 71.3296 9.97346C71.9131 9.92114 72.5062 9.8981 73.0854 9.82947C72.9648 9.99602 72.7568 10.1175 72.7391 10.3378C73.1648 10.4789 73.6234 10.4448 74.0405 10.6301C74.4336 10.8048 74.646 10.9488 74.9081 11.2742C75.4342 11.9289 75.7154 12.5894 75.8895 13.426C76.0402 14.1507 76.1186 15.1635 75.758 15.8316C75.4902 16.327 75.1621 16.7748 75.0678 17.3426C74.9244 18.1922 75.2816 19.6273 74.1945 19.9701C73.7344 20.1141 73.6143 20.0761 73.2006 19.8371C72.9548 19.6931 72.6788 19.5851 72.4717 19.3787C72.3005 19.2078 72.1766 18.9827 72.0097 18.8027C71.6912 18.4586 71.3042 18.16 71.0369 17.7727C70.4194 16.8766 70.0397 15.8595 69.1792 15.165C68.9334 14.9667 68.7431 14.768 68.5025 14.5823C68.4135 14.5141 68.2973 14.3807 68.1093 14.0413Z" fill="#231F20"/>
<path id="Vector_10" d="M71.2604 20.1847L71.1026 22.7257C71.1026 22.7257 73.4978 23.1841 73.9612 22.5337L73.7584 18.3099C73.7584 18.3099 74.749 17.2482 74.6591 16.5258C74.5691 15.8034 73.4657 15.8029 73.4208 16.006C73.3758 16.209 73.2185 12.7085 73.2185 12.7085C72.9133 12.6216 69.3989 11.6525 68.4242 13.0699C68.1889 13.4117 68.1162 13.9915 67.9703 15.1521C67.8507 16.1053 67.7833 16.64 67.8593 17.3374C67.9478 18.1505 68.132 19.8372 69.2894 20.3503C70.0245 20.6762 70.8328 20.3868 71.2604 20.1847Z" fill="#FDAA82"/>
<path id="Vector_11" d="M68.8297 18.5347L70.6304 18.4219C70.6304 18.4219 70.1579 19.1898 69.7303 19.1898C69.3027 19.1898 68.8297 18.5347 68.8297 18.5347Z" fill="white"/>
<path id="Vector_12" d="M77.8458 50.6365C77.8458 50.6365 77.0523 49.8066 77.1198 49.4001C77.1872 48.9935 77.6014 48.6206 77.1159 48.587C76.6305 48.5534 76.5291 49.3324 76.5965 49.8066C76.664 50.2808 76.728 50.1287 76.5779 50.1287C76.4277 50.1287 72.9334 49.9761 73.305 50.3658C73.6766 50.7555 74.9421 50.5688 74.9421 50.5688C74.9421 50.5688 72.7143 50.5352 73.0687 50.9586C73.4231 51.3819 74.9254 51.331 74.9254 51.331C74.9254 51.331 72.9166 51.2125 73.4399 51.619C73.9631 52.0256 74.9594 51.8057 74.9594 51.8057C74.9594 51.8057 73.3892 52.1446 73.8789 52.2968C74.3687 52.4489 75.8925 52.6668 76.8347 52.6779C77.7009 52.6884 79.096 52.1379 79.096 52.1379L77.9481 50.614L77.8458 50.6365Z" fill="#FDAA82"/>
<path id="Vector_13" d="M58.5523 53.1113C57.9281 53.8788 57.5428 54.8136 57.4441 55.7992C57.282 56.0959 57.3312 56.3719 57.4608 56.4429C57.5488 56.4909 57.7 56.4587 57.7813 56.379C57.8626 56.2994 57.9104 56.1242 57.9109 56.1242L57.7904 57.5521C57.7885 57.5815 57.7925 57.6109 57.8021 57.6387C57.8117 57.6664 57.8268 57.692 57.8464 57.7138C57.866 57.7357 57.8897 57.7533 57.9163 57.7658C57.9428 57.7783 57.9716 57.7853 58.0008 57.7865C58.0301 57.7876 58.0593 57.7829 58.0867 57.7725C58.1141 57.7622 58.1392 57.7464 58.1605 57.7262C58.1817 57.706 58.1988 57.6817 58.2105 57.6547C58.2223 57.6278 58.2285 57.5988 58.2289 57.5694C58.2806 57.0689 58.3321 56.5683 58.3834 56.0675L58.5159 56.0531L58.381 57.832C58.3741 57.8874 58.3877 57.9434 58.4191 57.9895C58.4506 58.0356 58.4978 58.0685 58.5518 58.0821C58.6058 58.0956 58.6628 58.0888 58.7122 58.063C58.7616 58.0371 58.7998 57.9941 58.8196 57.9419C58.8464 57.5833 58.8909 56.9752 58.9153 56.6162C58.9205 56.5456 58.9492 56.152 58.9545 56.081L59.0167 56.0872C59.039 56.5387 59.0613 56.9905 59.0836 57.4427C59.1009 57.5425 59.1506 57.6155 59.2109 57.6241C59.2314 57.626 59.2521 57.6229 59.2711 57.615C59.3287 57.5912 59.3746 57.5455 59.3988 57.4878L59.5423 56.0339L59.7293 55.9667C59.7245 56.3453 59.7196 56.7242 59.7145 57.1033C59.7125 57.1375 59.7202 57.1715 59.7366 57.2015C59.753 57.2314 59.7775 57.2561 59.8073 57.2728C59.8543 57.2903 59.9063 57.2887 59.9521 57.2681C59.9979 57.2475 60.0339 57.2098 60.0522 57.1629C60.0947 56.6698 60.1707 56.1802 60.2798 55.6975C60.3339 55.4575 60.3611 55.3735 60.3865 55.2208C60.4491 54.845 60.4625 54.2964 60.2176 53.5716L58.5523 53.1113Z" fill="#FDAA82"/>
<g id="Vector_14" style="mix-blend-mode:multiply">
<path d="M57.9396 56.21C57.9396 56.21 58.1309 55.239 58.3671 55.2049C58.6034 55.1708 59.065 55.0355 59.1209 54.6855C59.1209 54.6855 59.2338 55.2841 58.4236 55.2726C58.4236 55.2726 57.9171 55.9277 57.9396 56.21Z" fill="#E6E7E8"/>
</g>
<g id="Vector_15" style="mix-blend-mode:multiply">
<path d="M71.2607 20.185L72.6051 19.1094C72.6051 19.1094 71.9537 21.0375 71.188 21.3552L71.2607 20.185Z" fill="#E6E7E8"/>
</g>
</g>
</g>
<path id="Vector_16" d="M45.8586 100.999H11.1832C10.8586 100.999 10.5456 100.878 10.3059 100.658C10.0661 100.438 9.91693 100.136 9.88757 99.8119L0.991547 1.59354C0.973275 1.39133 0.99719 1.18752 1.06176 0.995102C1.12633 0.802682 1.23014 0.625871 1.36657 0.475946C1.503 0.32602 1.66907 0.206268 1.85418 0.124323C2.03929 0.0423769 2.23938 3.71245e-05 2.4417 5.97264e-09H36.193C36.6081 -3.52138e-05 37.0083 0.155695 37.3148 0.436604C37.6214 0.717513 37.8122 1.1033 37.8498 1.51818L46.7707 99.9971C46.7822 100.124 46.7672 100.253 46.7267 100.374C46.6861 100.495 46.6208 100.606 46.535 100.7C46.4491 100.795 46.3447 100.87 46.2282 100.921C46.1117 100.973 45.9858 100.999 45.8586 100.999Z" fill="#4EC6A9"/>
<path id="Vector_17" d="M43.8148 99.0668L12.2483 99.3068C11.6567 99.3068 11.1626 98.81 11.109 98.161L3.28438 3.41876C3.21646 2.59319 3.80666 1.88281 4.55948 1.88281H34.2353C34.9915 1.88281 35.6224 2.51831 35.6917 3.34772L44.6733 98.3756C44.7164 98.8949 44.2907 99.0668 43.8148 99.0668Z" fill="#FFFAEA"/>
<path id="Vector_18" d="M32.0905 25.0664C34.7153 28.6807 35.2084 31.4622 35.1323 33.3888C35.0907 34.4448 34.8511 35.9227 35.0309 38.2674C35.134 39.5974 35.3482 40.9164 35.6713 42.2104C36.1783 44.3358 36.7824 47.9366 37.1578 54.378L35.183 54.9372L31.0808 43.0955C31.4175 37.0871 31.7541 31.0774 32.0905 25.0664Z" fill="#D1D3D4"/>
<path id="Vector_19" d="M32.2459 35.1158C31.9417 35.6241 31.593 49.7582 31.593 49.7582C23.5239 51.3503 20.2716 49.679 20.2716 49.679C20.5782 48.479 19.988 44.2552 19.3859 40.6735C18.9788 38.2491 18.5661 36.1171 18.4221 35.4124C18.392 35.2646 18.3743 35.1797 18.37 35.1677C18.3193 35.015 13.2046 38.42 13.2046 38.42L19.7881 50.2449L18.7244 51.9373C18.7244 51.9373 9.30514 44.4155 9.10235 39.5369C8.89956 34.6584 15.3315 26.8342 16.091 25.3074C16.8505 23.7806 22.4717 21.6504 22.4717 21.6504H22.5196C22.8544 21.6504 24.898 21.6595 26.298 21.7593C26.9245 21.804 27.4234 21.8669 27.585 21.9552C28.1417 22.2604 32.244 23.6351 33.2058 27.2916C34.1676 30.9481 32.5496 34.6099 32.2459 35.1158Z" fill="#E9E7DD"/>
<path id="Vector_20" d="M26.1014 21.9653C26.1014 22.3262 25.3706 22.619 24.4695 22.619C23.5685 22.619 22.8376 22.3262 22.8376 21.9653C22.8376 21.851 22.9108 21.744 23.0395 21.6504C23.3035 21.6504 24.9134 21.6595 26.0182 21.7593C26.0696 21.8158 26.0991 21.8889 26.1014 21.9653Z" fill="#BCBEC0"/>
<path id="Vector_21" d="M28.2619 14.3514C28.2658 14.229 28.3576 14.12 28.4116 14.012C28.5032 13.8179 28.5847 13.6193 28.656 13.4169C28.7546 13.1538 28.8445 12.8654 28.867 12.5831C28.8995 12.1655 28.9004 11.6025 28.5547 11.3025C28.5068 11.2613 28.4351 11.2459 28.3868 11.2003C28.2208 11.0438 28.074 10.8321 27.9085 10.6675C27.512 10.273 27.0562 10.0944 26.5162 9.97538C26.564 10.0839 26.6807 10.1587 26.7252 10.2701C26.5507 10.3531 26.0394 10.0839 25.8519 10.0301C25.6438 9.9701 25.4449 9.87411 25.2301 9.84291C24.9656 9.80451 24.6868 9.8285 24.4199 9.8285C24.2377 9.8285 23.9086 9.77427 23.7537 9.8789C23.9172 10.1232 24.2272 10.2586 24.4682 10.4069C24.2525 10.5221 23.9306 10.5115 23.692 10.5696C23.4557 10.6302 23.2267 10.7165 23.009 10.8269C22.4379 11.1072 21.9482 11.472 21.5488 11.9702C21.214 12.3868 21.1265 12.9781 21.1791 13.4975C21.2494 14.1906 21.4106 14.9043 21.5268 15.5969C21.6215 16.1666 21.7492 16.7303 21.9094 17.285C22.0051 17.609 22.0529 17.861 22.2275 18.149C22.3772 18.3991 22.4896 18.6727 22.6417 18.917C22.8038 19.179 23.0061 19.1766 23.285 19.143C23.6011 19.1046 23.8158 18.9822 24.0837 18.8239C24.2697 18.7135 24.4759 18.6501 24.6796 18.5839C25.2143 18.4039 25.7534 18.2196 26.2579 17.968C26.7874 17.7055 27.1385 17.3993 27.5321 16.9687C28.0477 16.4062 27.8817 15.667 28.1323 15.0123C28.2165 14.8002 28.2285 14.6283 28.2619 14.3514Z" fill="#231F20"/>
<path id="Vector_22" d="M27.846 13.0654C27.846 13.0654 29.8715 21.4905 25.5502 20.316L25.82 22.1457C25.3855 22.2956 24.9292 22.372 24.4698 22.3718C23.7045 22.3718 23.2095 22.0554 23.2095 22.0554L23.5922 17.4702C23.5922 17.4702 22.714 17.4702 22.7365 16.6345C22.759 15.7989 22.9168 15.3016 23.1416 15.3918C23.3664 15.4821 23.7045 16.0019 23.7045 16.0019L23.409 12.7716C23.409 12.7716 26.8335 11.2837 27.846 13.0654Z" fill="#F9B49B"/>
<g id="Vector_23" style="mix-blend-mode:multiply">
<path d="M25.5501 20.3187L24.4697 19.5762C24.4697 19.5762 24.3936 20.8961 25.708 21.3881L25.5501 20.3187Z" fill="#E6E7E8"/>
</g>
<path id="Vector_24" d="M18.9372 52.038C18.9372 52.038 16.2431 61.186 18.1672 76.2292C18.1672 76.2292 16.4454 80.2951 16.6482 84.361C16.851 88.4269 17.4751 97.7559 17.4751 97.7559H19.2309C19.2309 97.7559 23.4847 82.3278 23.4087 79.9903C23.3326 77.6528 23.4087 75.6196 23.4087 75.6196L24.8521 68.0978L27.3755 76.7374C27.3755 76.7374 24.9138 78.8945 26.6529 85.705C28.3919 92.5154 29.0046 97.6786 29.0046 97.6786L31.0765 97.7578C30.8761 97.8754 33.1422 59.6587 31.6212 51.2768V50.7176L19.9737 50.3125C19.9737 50.3125 19.0669 51.5432 18.9372 52.038Z" fill="#58595B"/>
<path id="Vector_25" d="M31.6214 50.7189C31.6214 50.7189 24.2745 52.1108 19.7882 50.5005L20.2718 49.6816C20.2718 49.6816 23.9689 51.3246 31.5931 49.7604L31.6214 50.7189Z" fill="#414042"/>
<path id="Vector_26" d="M27.8567 51.5675H26.8944C26.7196 51.5673 26.552 51.4975 26.4283 51.3734C26.3047 51.2493 26.2351 51.0811 26.2349 50.9056V50.5159C26.235 50.3403 26.3045 50.172 26.4282 50.0478C26.5518 49.9237 26.7195 49.8538 26.8944 49.8535H27.8567C28.0317 49.8536 28.1995 49.9235 28.3233 50.0477C28.447 50.1719 28.5166 50.3403 28.5167 50.5159V50.9056C28.5165 51.0812 28.4469 51.2495 28.3231 51.3736C28.1994 51.4976 28.0316 51.5674 27.8567 51.5675ZM26.8944 50.0935C26.7829 50.0938 26.6761 50.1384 26.5973 50.2175C26.5185 50.2967 26.4741 50.404 26.474 50.5159V50.9056C26.4741 51.0175 26.5185 51.1247 26.5973 51.2038C26.6761 51.2829 26.783 51.3274 26.8944 51.3275H27.8567C27.9683 51.3275 28.0752 51.2831 28.1542 51.204C28.2331 51.1249 28.2775 51.0176 28.2776 50.9056V50.5159C28.2775 50.4039 28.2331 50.2965 28.1542 50.2174C28.0753 50.1382 27.9683 50.0936 27.8567 50.0935H26.8944Z" fill="#FFFAEA"/>
<path id="Vector_27" d="M27.1313 50.723C27.0328 50.7417 26.9342 50.7561 26.8357 50.771L26.6879 50.7907L26.5401 50.807C26.4923 50.8118 26.4416 50.8214 26.3924 50.8296C26.3435 50.837 26.2939 50.837 26.245 50.8296C26.1397 50.8163 26.0386 50.7794 25.9495 50.7216V50.6976C26.0386 50.6395 26.1396 50.6026 26.245 50.5896C26.2939 50.5821 26.3435 50.5821 26.3924 50.5896C26.4402 50.5977 26.4909 50.6073 26.5401 50.6126L26.6879 50.6289L26.8357 50.6486C26.9342 50.663 27.0328 50.6774 27.1313 50.6966V50.723Z" fill="#FFFAEA"/>
<path id="Vector_28" d="M26.4392 59.6309L26.2197 72.7819L24.8523 68.1011L26.4392 59.6309Z" fill="#231F20"/>
<path id="Vector_29" d="M20.5201 49.7568C20.7559 49.379 20.6938 48.9149 20.886 48.8755C20.9736 48.8578 21.0573 48.9394 21.0917 48.9715C21.2605 49.1357 21.227 49.4083 21.1955 49.6704C21.1726 49.8554 21.1261 50.0367 21.0573 50.2099C21.0573 50.2099 24.2283 50.1081 24.2617 50.4979C24.2952 50.8876 22.3008 50.6673 22.3008 50.6673L22.3515 50.8195C22.3515 50.8195 24.091 50.7518 24.2593 51.0398C24.4277 51.3278 22.2506 51.2937 22.2506 51.2937L22.2984 51.3955C22.2984 51.3955 24.0881 51.3787 24.0542 51.6834C24.0202 51.9882 22.2142 51.802 22.2142 51.802C22.2142 51.802 22.0793 51.802 22.2984 52.0223C22.5543 52.2786 23.5553 51.9326 23.4578 52.1975C23.3903 52.3809 22.1664 52.7648 20.6612 52.2849C20.6612 52.2849 20.5029 52.2369 18.9327 51.599L19.7578 50.2843C20.1968 50.1465 20.4078 49.9358 20.5201 49.7568Z" fill="#F9B49B"/>
<path id="Vector_30" d="M17.4169 97.7578C17.4169 97.7578 15.7802 98.8978 16.5732 99.1018C17.3662 99.3058 19.3922 99.1018 19.3922 99.1018L19.1727 97.7578H17.4169Z" fill="#231F20"/>
<path id="Vector_31" d="M31.0181 97.7588C31.0181 97.7588 32.4405 98.3233 32.8796 98.3742C33.3187 98.425 34.0442 98.3742 33.9093 98.5772C33.7745 98.7802 33.6224 98.967 33.2173 99.0178C32.8122 99.0687 28.6086 99.1873 28.7439 98.6622C28.8793 98.1371 28.6559 97.6686 29.0629 97.684L31.0181 97.7588Z" fill="#231F20"/>
<path id="Vector_32" d="M20.6321 34.1873C19.7798 37.155 19.3943 40.6027 19.3885 40.6728C18.9815 38.2484 18.5166 35.873 18.3727 35.1669C18.9131 34.29 19.7363 33.1198 19.7908 32.1032C19.875 30.5279 19.7908 29.9375 19.7908 29.9375C19.7908 29.9375 21.493 31.1888 20.6321 34.1873Z" fill="#D4D2C8"/>
<path id="Vector_33" d="M22.5193 21.6522C22.5193 21.6522 22.6149 23.9983 22.658 23.9983C22.701 23.9983 24.5596 22.6208 24.5596 22.6208C24.5596 22.6208 23.0511 22.5579 23.2429 21.6575L23.2649 21.3887C23.2649 21.3887 22.5609 21.4266 22.5193 21.6522Z" fill="#E6E7E8"/>
<path id="Vector_34" d="M24.4697 22.6172L26.4785 23.8767L26.3532 21.7263L25.7271 21.5156C25.7271 21.5156 25.9103 22.0806 25.8199 22.1454C25.7295 22.2102 24.4697 22.6172 24.4697 22.6172Z" fill="#E6E7E8"/>
<path id="Vector_35" d="M24.653 23.9951C24.8439 23.9762 25.0261 23.9057 25.1802 23.7911C25.3344 23.6765 25.4546 23.522 25.5282 23.3442L24.4698 22.6953L23.7777 23.1931C23.7777 23.1931 24.2986 24.0388 24.653 23.9951Z" fill="#AA685E"/>
<path id="Vector_36" d="M24.2714 23.3477C24.2714 23.3477 26.5236 31.8501 26.5403 37.0339C26.5571 42.2177 26.4786 44.9618 26.4786 44.9618L27.8235 45.9438L28.7323 44.9109C28.7323 44.9109 26.1017 25.1111 25.0357 23.3477H24.2714Z" fill="#AA685E"/>
<path id="Vector_37" d="M27.9416 13.0457C27.7087 13.1849 27.6355 13.3222 27.3251 13.3486C26.7923 13.3966 26.2198 13.3711 25.6856 13.3486C25.3833 13.3347 25.081 13.3351 24.7768 13.3351C24.6056 13.3351 24.4095 13.3049 24.2445 13.3553C24.2364 13.7393 24.2627 14.165 24.0317 14.4775C23.7734 14.8279 23.6797 15.2685 23.4314 15.6294C23.4845 14.6172 22.8805 13.6846 22.8929 12.6622C22.8967 12.3612 23.1129 12.1491 23.3917 12.0521C24.2225 11.7641 25.1523 11.6682 26.0223 11.7354C26.2007 11.7493 26.3346 11.7526 26.4929 11.8097C26.6512 11.8669 26.7737 11.9624 26.9143 12.0377C27.1601 12.1697 27.4294 12.2413 27.6614 12.3944C27.878 12.5316 27.9636 12.7236 27.9416 13.0457Z" fill="#231F20"/>
<path id="Vector_38" d="M34.7216 56.6706C34.5752 57.2465 34.3839 58.3423 34.5642 58.41C34.7445 58.4777 35.0143 57.224 35.0143 57.224C35.0143 57.224 34.8794 58.9745 35.1492 58.9183C35.4189 58.8622 35.5318 57.0214 35.5318 57.0214C35.5318 57.0214 35.2955 58.997 35.6557 59.0537C36.0158 59.1103 36.0273 57.032 36.0273 57.032C36.0273 57.032 35.9933 59.1353 36.2746 59.0546C36.5558 58.974 36.6347 57.642 36.6347 57.642C36.6347 57.642 36.9724 57.992 37.0963 57.834C37.2201 57.6761 37.2876 56.9984 37.2876 56.5918C37.2876 56.1853 37.2651 55.6319 37.1073 55.2705C36.9494 54.909 36.8107 54.4766 36.8107 54.4766L35.3214 54.898C35.3214 54.898 34.8684 56.0946 34.7216 56.6706Z" fill="#F9B49B"/>
<g id="Vector_39" style="mix-blend-mode:multiply">
<path d="M36.0723 55.4414C36.0723 55.4414 35.7006 55.9382 35.9934 56.1527C36.2861 56.3673 36.7246 56.853 36.7586 56.9774C36.7926 57.1017 36.6347 57.6436 36.6347 57.6436C36.6347 57.6436 36.9949 57.1578 36.9384 56.9207C36.882 56.6836 36.4659 56.2996 36.2296 56.0735C35.9934 55.8475 36.0723 55.4414 36.0723 55.4414Z" fill="#E6E7E8"/>
<path d="M36.0723 55.4414C36.0723 55.4414 35.7006 55.9382 35.9934 56.1527C36.2861 56.3673 36.7246 56.853 36.7586 56.9774C36.7926 57.1017 36.6347 57.6436 36.6347 57.6436C36.6347 57.6436 36.9949 57.1578 36.9384 56.9207C36.882 56.6836 36.4659 56.2996 36.2296 56.0735C35.9934 55.8475 36.0723 55.4414 36.0723 55.4414Z" stroke="#FFFAEA" stroke-miterlimit="10"/>
</g>
<path id="Vector_40" d="M26.1017 18.293H27.6748C27.6748 18.293 27.4519 19.2837 26.888 19.0801C26.3241 18.8766 26.1017 18.293 26.1017 18.293Z" fill="white"/>
<path id="Vector_41" opacity="0.4" d="M36.9784 16.9552L36.5819 12.7563L23.8812 1.87987L19.9913 1.87891L36.9784 16.9552Z" fill="#F1F2F2"/>
<path id="Vector_42" opacity="0.4" d="M5.9928 36.2129L41.5883 65.7294L43.005 80.7197L7.19041 50.716L5.9928 36.2129Z" fill="#F1F2F2"/>
<path id="Vector_43" opacity="0.4" d="M4.4293 17.2811L39.2094 45.9447L37.8138 29.476L5.45092 1.87989H4.5594C4.5594 1.87989 3.36848 1.78677 3.2843 3.41583L4.4293 17.2811Z" fill="#F1F2F2"/>
</g>
</svg>
