<svg width="22" height="28" viewBox="0 0 22 28" fill="none" xmlns="http://www.w3.org/2000/svg">
<g id="Group 55">
<path id="Vector" d="M4.33479 8.55086C4.2021 9.96623 4.10898 12.4711 4.9447 13.5373C4.9447 13.5373 4.55129 10.7857 8.07808 7.33336C9.4981 5.9436 9.82634 4.05333 9.33049 2.63563C9.04882 1.8325 8.53435 1.16904 8.08739 0.705789C7.82666 0.433423 8.02686 -0.0158641 8.40631 0.000431262C10.7016 0.102859 14.4216 0.740708 16.0023 4.70747C16.696 6.44875 16.7472 8.24823 16.4167 10.078C16.2072 11.2466 15.4622 13.8445 17.1616 14.1635C18.3744 14.3916 18.9611 13.4278 19.2241 12.7341C19.3335 12.4455 19.713 12.3733 19.9178 12.6038C21.9664 14.934 22.141 17.6786 21.7173 20.0414C20.8979 24.6088 16.2723 27.9331 11.677 27.9331C5.93639 27.9331 1.3667 24.6484 0.181791 18.7029C-0.295432 16.3028 -0.0533284 11.5539 3.64806 8.20167C3.92275 7.95026 4.37204 8.17374 4.33479 8.55086Z" fill="url(#paint0_radial_73_2599)"/>
<path id="Vector_2" d="M13.7745 17.0916C11.6585 14.368 12.6059 11.2602 13.125 10.0218C13.1949 9.85881 13.0087 9.70516 12.862 9.80526C11.9518 10.4245 10.0871 11.8818 9.21881 13.9327C8.04321 16.7052 8.12701 18.0624 8.82306 19.7199C9.24209 20.7185 8.75555 20.9304 8.51112 20.9676C8.27367 21.0049 8.05485 20.8466 7.88026 20.6813C7.37798 20.1991 7.02005 19.5864 6.84666 18.9121C6.80941 18.7677 6.62085 18.7282 6.53472 18.8469C5.8829 19.7478 5.54536 21.1934 5.52906 22.2154C5.47785 25.3744 8.08744 27.9351 11.2441 27.9351C15.2225 27.9351 18.1208 23.5353 15.8347 19.8572C15.1713 18.7864 14.5474 18.0857 13.7745 17.0916Z" fill="url(#paint1_radial_73_2599)"/>
</g>
<defs>
<radialGradient id="paint0_radial_73_2599" cx="0" cy="0" r="1" gradientUnits="userSpaceOnUse" gradientTransform="translate(10.54 28.0055) rotate(-179.751) scale(16.4322 26.962)">
<stop offset="0.314" stop-color="#FF9800"/>
<stop offset="0.662" stop-color="#FF6D00"/>
<stop offset="0.972" stop-color="#F44336"/>
</radialGradient>
<radialGradient id="paint1_radial_73_2599" cx="0" cy="0" r="1" gradientUnits="userSpaceOnUse" gradientTransform="translate(11.4629 11.6532) rotate(90.5787) scale(17.1931 12.9391)">
<stop offset="0.214" stop-color="#FFF176"/>
<stop offset="0.328" stop-color="#FFF27D"/>
<stop offset="0.487" stop-color="#FFF48F"/>
<stop offset="0.672" stop-color="#FFF7AD"/>
<stop offset="0.793" stop-color="#FFF9C4"/>
<stop offset="0.822" stop-color="#FFF8BD" stop-opacity="0.804"/>
<stop offset="0.863" stop-color="#FFF6AB" stop-opacity="0.529"/>
<stop offset="0.91" stop-color="#FFF38D" stop-opacity="0.209"/>
<stop offset="0.941" stop-color="#FFF176" stop-opacity="0"/>
</radialGradient>
</defs>
</svg>
