<svg width="19" height="20" viewBox="0 0 19 20" fill="none" xmlns="http://www.w3.org/2000/svg">
<path id="Vector" fill-rule="evenodd" clip-rule="evenodd" d="M2.99976 0C2.20411 0 1.44104 0.316071 0.878436 0.87868C0.315826 1.44129 -0.000244141 2.20435 -0.000244141 3V17C-0.000244141 17.7956 0.315826 18.5587 0.878436 19.1213C1.44104 19.6839 2.20411 20 2.99976 20H8.99976C9.79541 20 10.5585 19.6839 11.1211 19.1213C11.6837 18.5587 11.9998 17.7956 11.9998 17V3C11.9998 2.20435 11.6837 1.44129 11.1211 0.87868C10.5585 0.316071 9.79541 0 8.99976 0H2.99976ZM13.2928 5.293C13.4803 5.10553 13.7346 5.00021 13.9998 5.00021C14.2649 5.00021 14.5192 5.10553 14.7068 5.293L18.7068 9.293C18.8942 9.48053 18.9995 9.73484 18.9995 10C18.9995 10.2652 18.8942 10.5195 18.7068 10.707L14.7068 14.707C14.5182 14.8892 14.2656 14.99 14.0034 14.9877C13.7412 14.9854 13.4903 14.8802 13.3049 14.6948C13.1195 14.5094 13.0144 14.2586 13.0121 13.9964C13.0098 13.7342 13.1106 13.4816 13.2928 13.293L15.5858 11H6.99976C6.73454 11 6.48019 10.8946 6.29265 10.7071C6.10511 10.5196 5.99976 10.2652 5.99976 10C5.99976 9.73478 6.10511 9.48043 6.29265 9.29289C6.48019 9.10536 6.73454 9 6.99976 9H15.5858L13.2928 6.707C13.1053 6.51947 13 6.26516 13 6C13 5.73484 13.1053 5.48053 13.2928 5.293Z" fill="#FD2579"/>
</svg>
