<svg width="26" height="19" viewBox="0 0 26 19" fill="none" xmlns="http://www.w3.org/2000/svg">
<path id="Vector" d="M8.125 9C8.76519 9 9.39912 8.8836 9.99058 8.65746C10.582 8.43131 11.1195 8.09984 11.5721 7.68198C12.0248 7.26412 12.3839 6.76804 12.6289 6.22208C12.8739 5.67611 13 5.09095 13 4.5C13 3.90905 12.8739 3.32389 12.6289 2.77792C12.3839 2.23196 12.0248 1.73588 11.5721 1.31802C11.1195 0.900156 10.582 0.568688 9.99058 0.342542C9.39912 0.116396 8.76519 -1.24533e-08 8.125 0C6.83207 2.51506e-08 5.59209 0.474106 4.67785 1.31802C3.76361 2.16193 3.25 3.30653 3.25 4.5C3.25 5.69347 3.76361 6.83807 4.67785 7.68198C5.59209 8.52589 6.83207 9 8.125 9ZM16.3583 16.619C17.1849 16.854 18.2152 17 19.5 17C26 17 26 13.25 26 13.25C26 12.6533 25.7432 12.081 25.2861 11.659C24.829 11.2371 24.209 11 23.5625 11H16.3518C16.9815 11.6047 17.3325 12.4113 17.3312 13.25V13.805L17.3279 13.888C17.3049 14.222 17.2491 14.5534 17.1611 14.878C16.9938 15.493 16.7233 16.0801 16.3594 16.618L16.3583 16.619ZM23.2917 5.5C23.2917 5.95963 23.1936 6.41475 23.003 6.83939C22.8125 7.26403 22.5332 7.64987 22.1811 7.97487C21.829 8.29988 21.411 8.55769 20.951 8.73358C20.491 8.90947 19.9979 9 19.5 9C19.0021 9 18.509 8.90947 18.049 8.73358C17.589 8.55769 17.171 8.29988 16.8189 7.97487C16.4668 7.64987 16.1875 7.26403 15.997 6.83939C15.8064 6.41475 15.7083 5.95963 15.7083 5.5C15.7083 4.57174 16.1078 3.6815 16.8189 3.02513C17.53 2.36875 18.4944 2 19.5 2C20.5056 2 21.47 2.36875 22.1811 3.02513C22.8922 3.6815 23.2917 4.57174 23.2917 5.5ZM0 13.25C0 12.6533 0.256807 12.081 0.713927 11.659C1.17105 11.2371 1.79103 11 2.4375 11H13.8125C14.459 11 15.079 11.2371 15.5361 11.659C15.9932 12.081 16.25 12.6533 16.25 13.25V13.75C16.25 13.75 16.25 19 8.125 19C0 19 0 13.75 0 13.75V13.25Z" fill="#FD2579"/>
</svg>
