<svg width="19" height="21" viewBox="0 0 19 21" fill="none" xmlns="http://www.w3.org/2000/svg">
<g id="Group 21">
<path id="Vector" d="M9.40023 6.68945C8.45809 6.68945 7.55454 7.06372 6.88835 7.72991C6.22216 8.3961 5.8479 9.29964 5.8479 10.2418C5.8479 11.1839 6.22216 12.0875 6.88835 12.7537C7.55454 13.4198 8.45809 13.7941 9.40023 13.7941C10.3424 13.7941 11.2459 13.4198 11.9121 12.7537C12.5783 12.0875 12.9526 11.1839 12.9526 10.2418C12.9526 9.29964 12.5783 8.3961 11.9121 7.72991C11.2459 7.06372 10.3424 6.68945 9.40023 6.68945Z" fill="#FD2579"/>
<path id="Vector_2" fill-rule="evenodd" clip-rule="evenodd" d="M10.1433 0.192629C9.9159 0.0662966 9.6601 0 9.4 0C9.1399 0 8.8841 0.0662966 8.65674 0.192629L0.786976 4.56472C0.548415 4.69728 0.349647 4.89123 0.211273 5.12647C0.0728983 5.3617 -4.5849e-05 5.62967 2.16208e-08 5.90258V14.5812C2.16208e-08 15.1375 0.301674 15.6491 0.786976 15.919L8.65674 20.2911C8.8841 20.4175 9.1399 20.4838 9.4 20.4838C9.6601 20.4838 9.9159 20.4175 10.1433 20.2911L18.013 15.919C18.2514 15.7866 18.4501 15.5928 18.5884 15.3578C18.7268 15.1227 18.7999 14.855 18.8 14.5823V5.90258C18.8 5.62967 18.7271 5.3617 18.5887 5.12647C18.4504 4.89123 18.2516 4.69728 18.013 4.56472L10.1433 0.192629ZM4.20814 10.2419C4.20814 8.86492 4.75514 7.54435 5.7288 6.57069C6.70246 5.59702 8.02303 5.05002 9.4 5.05002C10.777 5.05002 12.0975 5.59702 13.0712 6.57069C14.0449 7.54435 14.5919 8.86492 14.5919 10.2419C14.5919 11.6189 14.0449 12.9394 13.0712 13.9131C12.0975 14.8867 10.777 15.4337 9.4 15.4337C8.02303 15.4337 6.70246 14.8867 5.7288 13.9131C4.75514 12.9394 4.20814 11.6189 4.20814 10.2419Z" fill="#FD2579"/>
</g>
</svg>
