<svg width="40" height="36" viewBox="0 0 40 36" fill="none" xmlns="http://www.w3.org/2000/svg">
<g id="Group">
<path id="Vector" d="M14.9822 0.0400391L17.3277 3.18217C12.0636 8.13039 9.33717 13.1964 9.14849 18.3803C10.679 18.3453 12.1933 18.6992 13.5494 19.4088C16.2947 20.898 17.6685 23.1836 17.6708 26.2656C17.6711 27.7883 17.2762 29.2849 16.5246 30.6095C14.8855 33.5431 12.4091 35.0099 9.09542 35.0099C7.93558 35.0291 6.78411 34.8108 5.71202 34.3682C4.63992 33.9257 3.66996 33.2684 2.86199 32.4368C0.953988 30.5306 0 27.9787 0 24.7812C0 20.8179 1.08724 16.7804 3.26175 12.6686C5.81126 7.71334 9.71806 3.5038 14.9822 0.0400391ZM37.2343 0.0400391L39.5798 3.18217C34.3275 8.13275 31.6011 13.2 31.4007 18.3838C32.9322 18.3493 34.4475 18.7031 35.8051 19.4123C38.5503 20.9015 39.9241 23.1871 39.9265 26.2692C39.9251 27.7909 39.529 29.2863 38.7768 30.6095C37.1258 33.5431 34.6494 35.0099 31.3476 35.0099C30.1872 35.0296 29.035 34.8115 27.9623 34.3689C26.8895 33.9264 25.919 33.2688 25.1106 32.4368C23.205 30.5306 22.251 27.9787 22.2486 24.7812C22.2486 20.8179 23.3359 16.7804 25.5104 12.6686C28.0669 7.71334 31.9749 3.5038 37.2343 0.0400391Z" fill="#01052D"/>
</g>
</svg>
