<svg width="121" height="138" viewBox="0 0 121 138" fill="none" xmlns="http://www.w3.org/2000/svg">
<g id="Group 23">
<g id="Group">
<g id="Layer 2">
<path id="Vector" d="M84.7671 68.6827C84.7671 68.6827 86.8694 120.679 88.5299 132.9H91.9902C91.9902 132.9 96.5568 113.735 95.8647 109.152C95.1727 104.569 94.8962 103.736 94.8962 103.736L96.9717 96.9302L100.016 104.986C100.016 104.986 99.6014 113.318 102.645 122.484C105.689 131.65 105.69 132.9 105.69 132.9H109.427C109.427 132.9 111.779 109.985 109.427 103.597C109.427 103.597 111.96 73.1082 105.988 68.3535L84.7671 68.6827Z" fill="#58595B"/>
<path id="Vector_2" d="M96.8025 31.0547C96.8025 31.0547 89.522 31.6062 85.9722 40.6815C85.9722 40.6815 83.9059 45.2348 83.5941 55.8682L79.6274 72.5333L82.1643 73.4127C82.1643 73.4127 87.2387 64.1545 87.4694 63.8765C87.7 63.5984 96.8025 31.0547 96.8025 31.0547Z" fill="#1B9CC9"/>
<path id="Vector_3" d="M96.6021 29.9902C96.6021 29.9902 93.2347 28.7402 89.083 35.7765C84.9314 42.8128 85.1163 53.0442 83.5479 55.1736C81.9795 57.3031 81.6103 67.5798 85.4391 69.0613C89.2679 70.5428 106.612 68.2743 106.612 68.2743C106.612 68.2743 106.105 53.3216 107.119 47.2573C107.119 47.2573 112.194 52.3956 112.194 54.3867C112.194 56.3777 107.212 68.3667 106.751 68.6448C106.289 68.9229 106.105 69.1537 106.105 69.1537L108.042 71.6537C108.042 71.6537 120.174 61.6079 120.174 55.1736C120.174 48.7394 120.82 49.8963 118.422 45.8223C116.023 41.7484 108.155 30.6978 101.341 29.9043L96.6021 29.9902Z" fill="#27AAE1"/>
<g id="Vector_4" style="mix-blend-mode:multiply">
<path d="M98.8173 31.6843C100.393 31.6843 101.67 31.3422 101.67 30.9203C101.67 30.4983 100.393 30.1562 98.8173 30.1562C97.242 30.1562 95.9648 30.4983 95.9648 30.9203C95.9648 31.3422 97.242 31.6843 98.8173 31.6843Z" fill="#E6E7E8"/>
</g>
<g id="Vector_5" style="mix-blend-mode:multiply">
<path d="M107.12 47.2587C107.12 47.2587 104.129 45.0171 104.222 41.8691C104.222 41.8691 103.945 47.3865 105.052 50.4604C106.159 53.5342 106.552 54.8432 106.552 54.8432L107.12 47.2587Z" fill="#E6E7E8"/>
</g>
<g id="Vector_6" style="mix-blend-mode:multiply">
<path d="M92.9585 81.791L95.8443 100.625L96.9716 96.9286L92.9585 81.791Z" fill="#BCBEC0"/>
</g>
<path id="Vector_7" d="M89.0126 133.178C89.0126 133.178 86.6136 135.585 84.9073 135.77C83.2011 135.956 82.7854 136.418 83.8003 136.928C84.8152 137.437 92.7493 136.928 92.7493 136.928C92.7493 136.928 93.0721 134.104 91.8729 133.178H89.0126Z" fill="#000100"/>
<path id="Vector_8" d="M106.034 133.178C106.034 133.178 105.111 136.825 106.034 137.154C106.956 137.483 114.153 137.154 114.153 137.154C114.153 137.154 114.014 135.863 112.676 135.449C111.339 135.035 108.848 133.921 108.755 133.412C108.663 132.903 108.94 132.902 108.94 132.902H106.172L106.034 133.178Z" fill="#000100"/>
<path id="Vector_9" d="M92.7121 19.189C92.6833 18.8191 92.3487 18.4918 92.1612 18.1862C91.9991 17.9239 91.9462 17.7219 91.871 17.432C91.6985 16.7657 91.3927 16.2647 91.7063 15.58C92.3729 14.1228 93.8916 13.726 95.1699 13C95.1869 13.3364 94.9673 13.6729 94.9908 14.0303C95.6829 14.109 96.4187 13.6925 97.112 13.6309C97.9093 13.5594 98.7197 13.5279 99.511 13.4342C99.3464 13.6617 99.0621 13.8276 99.0379 14.1287C99.6195 14.3215 100.246 14.2749 100.816 14.5281C101.353 14.7668 101.643 14.9635 102.001 15.4082C102.72 16.3027 103.105 17.2051 103.342 18.3482C103.548 19.3385 103.655 20.7223 103.163 21.6352C102.797 22.312 102.348 22.9238 102.22 23.6997C102.024 24.8605 102.512 26.8214 101.026 27.2896C100.398 27.4864 100.234 27.4346 99.6685 27.108C99.3326 26.9112 98.9556 26.7637 98.6726 26.4817C98.4386 26.2482 98.2694 25.9406 98.0413 25.6947C97.6061 25.2245 97.0774 24.8165 96.7121 24.2873C95.8685 23.0629 95.3496 21.6732 94.1739 20.7242C93.838 20.4534 93.578 20.1819 93.2493 19.9281C93.1277 19.8349 92.9689 19.6526 92.7121 19.189Z" fill="#231F20"/>
<path id="Vector_10" d="M97.0181 27.5832L96.8025 31.0551C96.8025 31.0551 100.075 31.6814 100.708 30.7928L100.431 25.0216C100.431 25.0216 101.785 23.5709 101.662 22.5839C101.539 21.5969 100.031 21.5962 99.9699 21.8736C99.9085 22.151 99.6935 17.3682 99.6935 17.3682C99.2766 17.2494 94.4747 15.9254 93.1429 17.862C92.8214 18.3289 92.722 19.1212 92.5227 20.7069C92.3594 22.0094 92.2672 22.74 92.3711 23.6929C92.492 24.8038 92.7436 27.1084 94.3251 27.8094C95.3295 28.2547 96.4339 27.8593 97.0181 27.5832Z" fill="#FDAA82"/>
<path id="Vector_11" d="M93.6963 25.3299L96.1567 25.1758C96.1567 25.1758 95.511 26.2251 94.9268 26.2251C94.3426 26.2251 93.6963 25.3299 93.6963 25.3299Z" fill="white"/>
<path id="Vector_12" d="M106.015 69.1905C106.015 69.1905 104.931 68.0565 105.023 67.5011C105.115 66.9456 105.681 66.436 105.018 66.3901C104.355 66.3442 104.216 67.4086 104.308 68.0565C104.401 68.7045 104.488 68.4966 104.283 68.4966C104.078 68.4966 99.3033 68.288 99.8111 68.8206C100.319 69.3531 102.048 69.098 102.048 69.098C102.048 69.098 99.004 69.0521 99.4882 69.6305C99.9725 70.2089 102.025 70.1394 102.025 70.1394C102.025 70.1394 99.2804 69.9774 99.9954 70.5329C100.71 71.0884 102.072 70.788 102.072 70.788C102.072 70.788 99.9261 71.251 100.595 71.4589C101.264 71.6668 103.346 71.9646 104.634 71.9797C105.817 71.9941 107.724 71.2419 107.724 71.2419L106.155 69.1596L106.015 69.1905Z" fill="#FDAA82"/>
<path id="Vector_13" d="M79.6541 72.5723C78.8013 73.6209 78.2747 74.8981 78.1399 76.2449C77.9184 76.6501 77.9857 77.0272 78.1628 77.1243C78.283 77.1899 78.4895 77.1459 78.6006 77.0371C78.7117 76.9282 78.7771 76.6888 78.7777 76.6888L78.6131 78.6399C78.6105 78.68 78.6159 78.7202 78.6291 78.7581C78.6422 78.7961 78.6628 78.831 78.6896 78.8608C78.7164 78.8907 78.7489 78.9148 78.7851 78.9319C78.8213 78.9489 78.8606 78.9585 78.9006 78.9601C78.9406 78.9617 78.9805 78.9552 79.018 78.9411C79.0555 78.9269 79.0897 78.9054 79.1188 78.8777C79.1478 78.8501 79.1711 78.8169 79.1871 78.7801C79.2032 78.7433 79.2118 78.7037 79.2123 78.6635C79.2829 77.9797 79.3532 77.2957 79.4234 76.6115L79.6044 76.5918L79.4201 79.0222C79.4107 79.098 79.4292 79.1746 79.4721 79.2375C79.5151 79.3005 79.5796 79.3455 79.6534 79.364C79.7272 79.3825 79.8052 79.3732 79.8726 79.3379C79.94 79.3026 79.9923 79.2437 80.0194 79.1724C80.056 78.6825 80.1168 77.8516 80.1501 77.3611C80.1573 77.2646 80.1965 76.7269 80.2037 76.6298L80.2886 76.6383C80.3191 77.2552 80.3496 77.8726 80.3801 78.4904C80.4036 78.6268 80.4716 78.7265 80.5539 78.7383C80.582 78.7408 80.6102 78.7365 80.6363 78.7258C80.715 78.6932 80.7777 78.6308 80.8108 78.552L81.0068 76.5655L81.2623 76.4737C81.2558 76.991 81.249 77.5086 81.2421 78.0267C81.2394 78.0734 81.2498 78.1198 81.2723 78.1608C81.2947 78.2017 81.3282 78.2355 81.3688 78.2582C81.4331 78.2822 81.5042 78.2799 81.5668 78.2518C81.6293 78.2237 81.6784 78.1721 81.7034 78.108C81.7615 77.4343 81.8655 76.7653 82.0145 76.1058C82.0883 75.7779 82.1256 75.6631 82.1602 75.4546C82.2458 74.9411 82.2641 74.1915 81.9295 73.2012L79.6541 72.5723Z" fill="#FDAA82"/>
<g id="Vector_14" style="mix-blend-mode:multiply">
<path d="M78.8169 76.8055C78.8169 76.8055 79.0783 75.4788 79.4011 75.4323C79.724 75.3857 80.3546 75.2007 80.431 74.7227C80.431 74.7227 80.5853 75.5405 79.4783 75.5247C79.4783 75.5247 78.7862 76.4199 78.8169 76.8055Z" fill="#E6E7E8"/>
</g>
<g id="Vector_15" style="mix-blend-mode:multiply">
<path d="M97.0183 27.583L98.8553 26.1133C98.8553 26.1133 97.9652 28.7477 96.9189 29.1819L97.0183 27.583Z" fill="#E6E7E8"/>
</g>
</g>
</g>
<path id="Vector_16" d="M62.3102 137.999H14.932C14.4884 137.999 14.0608 137.833 13.7332 137.533C13.4056 137.232 13.2018 136.82 13.1616 136.377L1.00667 2.17732C0.981701 1.90103 1.01438 1.62256 1.1026 1.35965C1.19082 1.09674 1.33266 0.855151 1.51907 0.650303C1.70549 0.445454 1.93239 0.281832 2.18532 0.169867C2.43824 0.0579013 2.71163 5.07246e-05 2.98806 8.16064e-09H49.1038C49.671 -4.8114e-05 50.2177 0.212732 50.6366 0.596549C51.0554 0.980366 51.3161 1.50748 51.3675 2.07435L63.5564 136.63C63.5723 136.804 63.5518 136.979 63.4963 137.144C63.4409 137.31 63.3517 137.462 63.2344 137.591C63.1171 137.719 62.9744 137.822 62.8153 137.893C62.6561 137.963 62.4841 137.999 62.3102 137.999Z" fill="#4EC6A9"/>
<path id="Vector_17" d="M59.5175 135.357L16.3869 135.684C15.5785 135.684 14.9035 135.006 14.8303 134.119L4.13911 4.66893C4.04632 3.54092 4.85273 2.57031 5.88133 2.57031H46.4286C47.4618 2.57031 48.3238 3.43861 48.4185 4.57187L60.6905 134.412C60.7493 135.122 60.1677 135.357 59.5175 135.357Z" fill="#FFFAEA"/>
<path id="Vector_18" d="M43.4987 34.25C47.085 39.1883 47.7588 42.9888 47.6549 45.6212C47.598 47.064 47.2706 49.0833 47.5163 52.287C47.6572 54.1043 47.9499 55.9064 48.3914 57.6745C49.0841 60.5785 49.9094 65.4984 50.4224 74.2995L47.7242 75.0636L42.1191 58.8839C42.5792 50.6743 43.039 42.463 43.4987 34.25Z" fill="#D1D3D4"/>
<path id="Vector_19" d="M43.7108 47.9823C43.2952 48.6768 42.8188 67.9887 42.8188 67.9887C31.7937 70.1641 27.35 67.8805 27.35 67.8805C27.7689 66.241 26.9624 60.4698 26.1397 55.576C25.5836 52.2635 25.0196 49.3504 24.8229 48.3876C24.7817 48.1856 24.7576 48.0695 24.7517 48.0532C24.6824 47.8446 17.6939 52.497 17.6939 52.497L26.6893 68.6537L25.2359 70.9661C25.2359 70.9661 12.366 60.6888 12.0889 54.0231C11.8119 47.3573 20.6 36.6668 21.6378 34.5807C22.6755 32.4945 30.356 29.584 30.356 29.584H30.4214C30.8788 29.584 33.6712 29.5964 35.584 29.7329C36.4401 29.7938 37.1216 29.8798 37.3425 30.0004C38.1032 30.4175 43.7082 32.2958 45.0224 37.2918C46.3366 42.2879 44.1258 47.2911 43.7108 47.9823Z" fill="#E9E7DD"/>
<path id="Vector_20" d="M35.3154 30.0123C35.3154 30.5054 34.3169 30.9055 33.0857 30.9055C31.8545 30.9055 30.856 30.5054 30.856 30.0123C30.856 29.8562 30.9559 29.7099 31.1317 29.582C31.4925 29.582 33.6921 29.5945 35.2017 29.7309C35.2718 29.8081 35.3122 29.9079 35.3154 30.0123Z" fill="#BCBEC0"/>
<path id="Vector_21" d="M38.2673 19.6091C38.2725 19.4419 38.398 19.293 38.4718 19.1455C38.5968 18.8803 38.7083 18.6089 38.8057 18.3323C38.9404 17.9729 39.0632 17.5787 39.0939 17.1931C39.1384 16.6225 39.1397 15.8533 38.6672 15.4434C38.6018 15.387 38.5038 15.366 38.4378 15.3037C38.2111 15.0899 38.0104 14.8007 37.7843 14.5757C37.2426 14.0366 36.6198 13.7927 35.882 13.63C35.9474 13.7783 36.1068 13.8806 36.1676 14.0327C35.9291 14.1462 35.2305 13.7783 34.9743 13.7048C34.69 13.6228 34.4182 13.4917 34.1248 13.449C33.7634 13.3966 33.3824 13.4294 33.0177 13.4294C32.7688 13.4294 32.3192 13.3553 32.1074 13.4982C32.3309 13.832 32.7544 14.017 33.0838 14.2196C32.789 14.377 32.3492 14.3626 32.0231 14.4419C31.7003 14.5247 31.3874 14.6426 31.0899 14.7935C30.3097 15.1765 29.6405 15.6749 29.0948 16.3556C28.6374 16.9249 28.5178 17.7328 28.5897 18.4424C28.6857 19.3894 28.906 20.3646 29.0648 21.311C29.1941 22.0894 29.3687 22.8595 29.5876 23.6175C29.7183 24.0602 29.7836 24.4045 30.0221 24.798C30.2267 25.1397 30.3802 25.5135 30.5881 25.8473C30.8096 26.2054 31.086 26.2021 31.467 26.1562C31.899 26.1037 32.1924 25.9365 32.5583 25.7201C32.8125 25.5692 33.0942 25.4826 33.3726 25.3921C34.1032 25.1462 34.8397 24.8944 35.5291 24.5507C36.2525 24.192 36.7322 23.7736 37.27 23.1853C37.9745 22.4167 37.7477 21.4067 38.0902 20.5122C38.2052 20.2223 38.2215 19.9875 38.2673 19.6091Z" fill="#231F20"/>
<path id="Vector_22" d="M37.6987 17.853C37.6987 17.853 40.4662 29.3646 34.5619 27.7599L34.9305 30.2598C34.3368 30.4647 33.7134 30.5691 33.0856 30.5687C32.04 30.5687 31.3637 30.1365 31.3637 30.1365L31.8865 23.8715C31.8865 23.8715 30.6867 23.8715 30.7174 22.7297C30.7481 21.5879 30.9637 20.9085 31.2709 21.0318C31.578 21.1551 32.04 21.8654 32.04 21.8654L31.6362 17.4517C31.6362 17.4517 36.3152 15.4186 37.6987 17.853Z" fill="#F9B49B"/>
<g id="Vector_23" style="mix-blend-mode:multiply">
<path d="M34.5623 27.7607L33.0861 26.7461C33.0861 26.7461 32.9822 28.5496 34.778 29.2218L34.5623 27.7607Z" fill="#E6E7E8"/>
</g>
<path id="Vector_24" d="M25.5263 71.1038C25.5263 71.1038 21.8452 83.603 24.4742 104.157C24.4742 104.157 22.1216 109.712 22.3987 115.268C22.6757 120.823 23.5285 133.57 23.5285 133.57H25.9275C25.9275 133.57 31.7397 112.49 31.6358 109.296C31.5319 106.102 31.6358 103.324 31.6358 103.324L33.608 93.0468L37.0559 104.852C37.0559 104.852 33.6923 107.799 36.0684 117.104C38.4445 126.41 39.2817 133.464 39.2817 133.464L42.1126 133.572C41.8388 133.733 44.935 81.5162 42.8569 70.0636V69.2996L26.9424 68.7461C26.9424 68.7461 25.7034 70.4276 25.5263 71.1038Z" fill="#58595B"/>
<path id="Vector_25" d="M42.8575 69.2981C42.8575 69.2981 32.8192 71.2 26.6895 68.9997L27.3501 67.8809C27.3501 67.8809 32.4016 70.1257 42.819 67.9884L42.8575 69.2981Z" fill="#414042"/>
<path id="Vector_26" d="M37.7136 70.4591H36.3987C36.1598 70.4588 35.9308 70.3634 35.7619 70.1938C35.593 70.0243 35.4979 69.7945 35.4976 69.5547V69.0222C35.4977 68.7824 35.5927 68.5524 35.7617 68.3827C35.9306 68.213 36.1597 68.1175 36.3987 68.1172H37.7136C37.9527 68.1174 38.182 68.2128 38.351 68.3825C38.5201 68.5521 38.6152 68.7822 38.6154 69.0222V69.5547C38.615 69.7946 38.5199 70.0245 38.3508 70.1941C38.1817 70.3636 37.9526 70.4589 37.7136 70.4591ZM36.3987 68.4451C36.2464 68.4454 36.1004 68.5064 35.9927 68.6146C35.885 68.7227 35.8245 68.8693 35.8243 69.0222V69.5547C35.8245 69.7076 35.8851 69.8541 35.9927 69.9622C36.1004 70.0702 36.2464 70.131 36.3987 70.1312H37.7136C37.866 70.1312 38.0121 70.0705 38.12 69.9624C38.2278 69.8543 38.2885 69.7077 38.2886 69.5547V69.0222C38.2885 68.8692 38.2278 68.7225 38.12 68.6143C38.0122 68.5061 37.866 68.4453 37.7136 68.4451H36.3987Z" fill="#FFFAEA"/>
<path id="Vector_27" d="M36.7222 69.3052C36.5876 69.3308 36.453 69.3504 36.3183 69.3708L36.1164 69.3976L35.9145 69.4199C35.8491 69.4265 35.7799 69.4396 35.7126 69.4508C35.6458 69.4609 35.578 69.4609 35.5113 69.4508C35.3673 69.4327 35.2293 69.3822 35.1074 69.3032V69.2704C35.2291 69.1911 35.3672 69.1407 35.5113 69.1229C35.578 69.1127 35.6458 69.1127 35.7126 69.1229C35.7779 69.134 35.8472 69.1471 35.9145 69.1543L36.1164 69.1766L36.3183 69.2035C36.453 69.2232 36.5876 69.2429 36.7222 69.2691V69.3052Z" fill="#FFFAEA"/>
<path id="Vector_28" d="M35.7767 81.4766L35.4767 99.4453L33.6084 93.0498L35.7767 81.4766Z" fill="#231F20"/>
<path id="Vector_29" d="M27.6894 67.9848C28.0116 67.4687 27.9267 66.8345 28.1894 66.7808C28.309 66.7565 28.4233 66.868 28.4704 66.9119C28.7011 67.1362 28.6553 67.5087 28.6122 67.8668C28.5809 68.1196 28.5174 68.3673 28.4233 68.6039C28.4233 68.6039 32.756 68.4649 32.8017 68.9974C32.8475 69.5299 30.1224 69.2289 30.1224 69.2289L30.1917 69.4368C30.1917 69.4368 32.5684 69.3444 32.7985 69.7378C33.0285 70.1313 30.0538 70.0848 30.0538 70.0848L30.1191 70.2238C30.1191 70.2238 32.5645 70.2009 32.5181 70.6173C32.4717 71.0337 30.0041 70.7793 30.0041 70.7793C30.0041 70.7793 29.8198 70.7793 30.1191 71.0803C30.4688 71.4305 31.8365 70.9577 31.7032 71.3197C31.6111 71.5702 29.9388 72.0949 27.8822 71.439C27.8822 71.439 27.6659 71.3735 25.5205 70.5019L26.6478 68.7056C27.2477 68.5174 27.5359 68.2295 27.6894 67.9848Z" fill="#F9B49B"/>
<path id="Vector_30" d="M23.4491 133.572C23.4491 133.572 21.2128 135.13 22.2963 135.409C23.3798 135.687 26.148 135.409 26.148 135.409L25.8481 133.572H23.4491Z" fill="#231F20"/>
<path id="Vector_31" d="M42.0331 133.572C42.0331 133.572 43.9766 134.343 44.5765 134.412C45.1764 134.482 46.1678 134.412 45.9835 134.69C45.7992 134.967 45.5914 135.222 45.0379 135.292C44.4844 135.361 38.7408 135.523 38.9258 134.806C39.1107 134.088 38.8055 133.448 39.3616 133.469L42.0331 133.572Z" fill="#231F20"/>
<path id="Vector_32" d="M27.842 46.7129C26.6775 50.7678 26.1507 55.4785 26.1429 55.5743C25.5868 52.2618 24.9516 49.0161 24.7549 48.0514C25.4933 46.8532 26.618 45.2543 26.6925 43.8653C26.8075 41.7129 26.6925 40.9062 26.6925 40.9062C26.6925 40.9062 29.0183 42.616 27.842 46.7129Z" fill="#D4D2C8"/>
<path id="Vector_33" d="M30.4209 29.5847C30.4209 29.5847 30.5516 32.7903 30.6104 32.7903C30.6692 32.7903 33.2087 30.9081 33.2087 30.9081C33.2087 30.9081 31.1476 30.8222 31.4096 29.5919L31.4397 29.2246C31.4397 29.2246 30.4778 29.2764 30.4209 29.5847Z" fill="#E6E7E8"/>
<path id="Vector_34" d="M33.0859 30.9035L35.8306 32.6244L35.6594 29.6863L34.804 29.3984C34.804 29.3984 35.0543 30.1703 34.9308 30.2589C34.8072 30.3474 33.0859 30.9035 33.0859 30.9035Z" fill="#E6E7E8"/>
<path id="Vector_35" d="M33.3365 32.7877C33.5974 32.7619 33.8464 32.6655 34.057 32.5089C34.2676 32.3523 34.4319 32.1413 34.5324 31.8984L33.0862 31.0117L32.1406 31.6918C32.1406 31.6918 32.8523 32.8474 33.3365 32.7877Z" fill="#AA685E"/>
<path id="Vector_36" d="M32.8145 31.9023C32.8145 31.9023 35.8917 43.5195 35.9146 50.6024C35.9375 57.6852 35.8303 61.4345 35.8303 61.4345L37.6679 62.7763L38.9096 61.365C38.9096 61.365 35.3154 34.3118 33.8587 31.9023H32.8145Z" fill="#AA685E"/>
<path id="Vector_37" d="M37.8297 17.8262C37.5114 18.0164 37.4115 18.204 36.9873 18.24C36.2593 18.3056 35.4771 18.2709 34.7472 18.24C34.3342 18.221 33.9211 18.2217 33.5055 18.2217C33.2716 18.2217 33.0036 18.1804 32.7782 18.2492C32.7671 18.7739 32.803 19.3556 32.4874 19.7825C32.1345 20.2613 32.0064 20.8633 31.6672 21.3565C31.7398 19.9734 30.9144 18.6991 30.9314 17.3022C30.9366 16.891 31.232 16.6011 31.613 16.4687C32.7481 16.0752 34.0185 15.944 35.2072 16.0358C35.451 16.0549 35.634 16.0594 35.8503 16.1375C36.0666 16.2155 36.2339 16.346 36.426 16.449C36.7619 16.6293 37.1298 16.7271 37.4467 16.9363C37.7428 17.1238 37.8598 17.3862 37.8297 17.8262Z" fill="#231F20"/>
<path id="Vector_38" d="M47.0934 77.4313C46.8935 78.2183 46.6321 79.7156 46.8784 79.808C47.1248 79.9005 47.4934 78.1875 47.4934 78.1875C47.4934 78.1875 47.3091 80.5793 47.6777 80.5025C48.0462 80.4258 48.2005 77.9107 48.2005 77.9107C48.2005 77.9107 47.8776 80.6101 48.3697 80.6875C48.8618 80.7649 48.8775 77.9252 48.8775 77.9252C48.8775 77.9252 48.8311 80.799 49.2153 80.6888C49.5996 80.5786 49.7074 78.7587 49.7074 78.7587C49.7074 78.7587 50.1688 79.2368 50.338 79.021C50.5073 78.8053 50.5994 77.8793 50.5994 77.3238C50.5994 76.7683 50.5687 76.0122 50.3531 75.5183C50.1374 75.0245 49.9479 74.4336 49.9479 74.4336L47.9129 75.0094C47.9129 75.0094 47.2941 76.6444 47.0934 77.4313Z" fill="#F9B49B"/>
<g id="Vector_39" style="mix-blend-mode:multiply">
<path d="M48.9391 75.7539C48.9391 75.7539 48.4313 76.4327 48.8313 76.7258C49.2312 77.019 49.8305 77.6827 49.8769 77.8525C49.9233 78.0224 49.7076 78.7628 49.7076 78.7628C49.7076 78.7628 50.1997 78.0991 50.1226 77.7751C50.0455 77.4512 49.4769 76.9265 49.1541 76.6176C48.8313 76.3087 48.9391 75.7539 48.9391 75.7539Z" fill="#E6E7E8"/>
<path d="M48.9391 75.7539C48.9391 75.7539 48.4313 76.4327 48.8313 76.7258C49.2312 77.019 49.8305 77.6827 49.8769 77.8525C49.9233 78.0224 49.7076 78.7628 49.7076 78.7628C49.7076 78.7628 50.1997 78.0991 50.1226 77.7751C50.0455 77.4512 49.4769 76.9265 49.1541 76.6176C48.8313 76.3087 48.9391 75.7539 48.9391 75.7539Z" stroke="#FFFAEA" stroke-miterlimit="10"/>
</g>
<path id="Vector_40" d="M35.3154 24.9941H37.4648C37.4648 24.9941 37.1602 26.3478 36.3898 26.0697C35.6193 25.7916 35.3154 24.9941 35.3154 24.9941Z" fill="white"/>
<path id="Vector_41" opacity="0.4" d="M50.1769 23.1657L49.6352 17.4286L32.2817 2.56772L26.9668 2.56641L50.1769 23.1657Z" fill="#F1F2F2"/>
<path id="Vector_42" opacity="0.4" d="M7.83984 49.4805L56.4754 89.81L58.4111 110.292L9.47619 69.2967L7.83984 49.4805Z" fill="#F1F2F2"/>
<path id="Vector_43" opacity="0.4" d="M5.70411 23.611L53.2255 62.7752L51.3186 40.2734L7.09998 2.56775H5.88186C5.88186 2.56775 4.25466 2.44052 4.13965 4.66637L5.70411 23.611Z" fill="#F1F2F2"/>
</g>
</svg>
